<?xml version="1.0" standalone="no"?><!DOCTYPE svg PUBLIC "-//W3C//DTD SVG 1.1//EN" "http://www.w3.org/Graphics/SVG/1.1/DTD/svg11.dtd"><svg t="1705569165890" class="icon" viewBox="0 0 1040 1024" version="1.1" xmlns="http://www.w3.org/2000/svg" p-id="6824" xmlns:xlink="http://www.w3.org/1999/xlink" width="203.125" height="200"><path d="M308.207213 300.854557h418.916721v418.916722h-418.933508z" fill="#A8CEFB" p-id="6825"></path><path d="M1037.815607 326.320262v-61.104262h-138.793968v-0.033574c0-69.497705-56.53823-126.035934-126.035934-126.035934h-10.206426V0.335738h-61.121049v138.793967h-81.500328V0.335738h-61.104263v138.793967h-81.500328V0.335738h-61.121049v138.793967h-81.500328V0.335738h-61.104262v138.793967h-8.94741c-69.497705 0-126.035934 56.53823-126.035934 126.035934v0.016787h-138.793967v61.121049h138.793967v81.500328h-138.793967v61.104263h138.793967v81.500327h-138.793967v61.104263h138.793967v81.500328h-138.793967v61.121049h138.793967v0.033574c0 69.497705 56.53823 126.035934 126.035934 126.035934h8.930623v138.77718h61.121049v-138.77718h81.500328v138.77718h61.104263v-138.77718h81.500327v138.77718h61.12105v-138.77718h81.500328v138.77718h61.104262v-138.77718h10.223213c69.497705 0 126.035934-56.555016 126.035934-126.035934v-0.033574h138.793968v-61.104263h-138.793968V611.54623h138.793968v-61.12105h-138.793968v-81.500328h138.793968v-61.104262h-138.793968v-81.500328h138.793968z m-215.207869 427.864131a49.68918 49.68918 0 0 1-49.622033 49.622033h-508.105443a49.68918 49.68918 0 0 1-49.638819-49.622033v-489.001967a49.68918 49.68918 0 0 1 49.638819-49.638819h508.105443a49.68918 49.68918 0 0 1 49.63882 49.638819v489.001967z" fill="#359AE3" p-id="6826"></path></svg>