<?xml version="1.0" standalone="no"?><!DOCTYPE svg PUBLIC "-//W3C//DTD SVG 1.1//EN" "http://www.w3.org/Graphics/SVG/1.1/DTD/svg11.dtd"><svg t="1729559802513" class="icon" viewBox="0 0 1128 1024" version="1.1" xmlns="http://www.w3.org/2000/svg" p-id="2394" xmlns:xlink="http://www.w3.org/1999/xlink" width="282" height="256"><path d="M898.612245 156.734694a62.693878 62.693878 0 0 1 62.693877 62.693877v585.142858a62.693878 62.693878 0 0 1-62.693877 62.693877H229.877551a62.693878 62.693878 0 0 1-62.693878-62.693877v-585.142858a62.693878 62.693878 0 0 1 62.693878-62.693877h668.734694m0-62.693878H229.877551a125.387755 125.387755 0 0 0-125.387755 125.387755v585.142858a125.387755 125.387755 0 0 0 125.387755 125.387755h668.734694a125.387755 125.387755 0 0 0 125.387755-125.387755v-585.142858a125.387755 125.387755 0 0 0-125.387755-125.387755z" fill="#74C0FC" p-id="2395"></path><path d="M835.918367 282.122449v459.755102H292.571429v-459.755102h543.346938m41.795919-62.693878H250.77551a20.897959 20.897959 0 0 0-20.897959 20.89796v543.346938a20.897959 20.897959 0 0 0 20.897959 20.89796h626.938776a20.897959 20.897959 0 0 0 20.897959-20.89796v-543.346938a20.897959 20.897959 0 0 0-20.897959-20.89796z" fill="#74C0FC" p-id="2396"></path><path d="M564.244898 668.734694a30.72 30.72 0 0 1-15.25551-3.970612 31.346939 31.346939 0 0 1-12.120817-41.795919L580.545306 543.346939h-85.890612a31.555918 31.555918 0 0 1-27.167347-15.46449 31.346939 31.346939 0 0 1 0-31.137959l69.590204-125.387755a31.346939 31.346939 0 1 1 54.752653 30.51102L547.94449 480.653061h85.890612a31.555918 31.555918 0 0 1 27.167347 15.46449 31.346939 31.346939 0 0 1 0 31.137959l-69.590204 125.387755A31.137959 31.137959 0 0 1 564.244898 668.734694zM114.938776 417.959184h-83.591837a31.346939 31.346939 0 0 1 0-62.693878h83.591837a31.346939 31.346939 0 0 1 0 62.693878zM114.938776 292.571429h-83.591837a31.346939 31.346939 0 0 1 0-62.693878h83.591837a31.346939 31.346939 0 0 1 0 62.693878zM114.938776 668.734694h-83.591837a31.346939 31.346939 0 0 1 0-62.693878h83.591837a31.346939 31.346939 0 0 1 0 62.693878zM114.938776 543.346939h-83.591837a31.346939 31.346939 0 0 1 0-62.693878h83.591837a31.346939 31.346939 0 0 1 0 62.693878zM114.938776 794.122449h-83.591837a31.346939 31.346939 0 0 1 0-62.693878h83.591837a31.346939 31.346939 0 0 1 0 62.693878zM1097.142857 417.959184h-83.591837a31.346939 31.346939 0 0 1 0-62.693878h83.591837a31.346939 31.346939 0 0 1 0 62.693878zM1097.142857 292.571429h-83.591837a31.346939 31.346939 0 0 1 0-62.693878h83.591837a31.346939 31.346939 0 0 1 0 62.693878zM1097.142857 668.734694h-83.591837a31.346939 31.346939 0 0 1 0-62.693878h83.591837a31.346939 31.346939 0 0 1 0 62.693878zM1097.142857 543.346939h-83.591837a31.346939 31.346939 0 0 1 0-62.693878h83.591837a31.346939 31.346939 0 0 1 0 62.693878zM1097.142857 794.122449h-83.591837a31.346939 31.346939 0 0 1 0-62.693878h83.591837a31.346939 31.346939 0 0 1 0 62.693878zM689.632653 146.285714a31.346939 31.346939 0 0 1-31.346939-31.346938v-83.591837a31.346939 31.346939 0 0 1 62.693878 0v83.591837A31.346939 31.346939 0 0 1 689.632653 146.285714zM815.020408 146.285714a31.346939 31.346939 0 0 1-31.346939-31.346938v-83.591837a31.346939 31.346939 0 0 1 62.693878 0v83.591837A31.346939 31.346939 0 0 1 815.020408 146.285714zM438.857143 146.285714a31.346939 31.346939 0 0 1-31.346939-31.346938v-83.591837a31.346939 31.346939 0 0 1 62.693878 0v83.591837A31.346939 31.346939 0 0 1 438.857143 146.285714zM564.244898 146.285714a31.346939 31.346939 0 0 1-31.346939-31.346938v-83.591837a31.346939 31.346939 0 0 1 62.693878 0v83.591837A31.346939 31.346939 0 0 1 564.244898 146.285714zM313.469388 146.285714a31.346939 31.346939 0 0 1-31.346939-31.346938v-83.591837a31.346939 31.346939 0 0 1 62.693878 0v83.591837A31.346939 31.346939 0 0 1 313.469388 146.285714zM689.632653 1024a31.346939 31.346939 0 0 1-31.346939-31.346939v-83.591837a31.346939 31.346939 0 0 1 62.693878 0v83.591837A31.346939 31.346939 0 0 1 689.632653 1024zM815.020408 1024a31.346939 31.346939 0 0 1-31.346939-31.346939v-83.591837a31.346939 31.346939 0 0 1 62.693878 0v83.591837A31.346939 31.346939 0 0 1 815.020408 1024zM438.857143 1024a31.346939 31.346939 0 0 1-31.346939-31.346939v-83.591837a31.346939 31.346939 0 0 1 62.693878 0v83.591837A31.346939 31.346939 0 0 1 438.857143 1024zM564.244898 1024a31.346939 31.346939 0 0 1-31.346939-31.346939v-83.591837a31.346939 31.346939 0 0 1 62.693878 0v83.591837A31.346939 31.346939 0 0 1 564.244898 1024zM313.469388 1024a31.346939 31.346939 0 0 1-31.346939-31.346939v-83.591837a31.346939 31.346939 0 0 1 62.693878 0v83.591837A31.346939 31.346939 0 0 1 313.469388 1024z" fill="#74C0FC" p-id="2397"></path></svg>