<?xml version="1.0" standalone="no"?><!DOCTYPE svg PUBLIC "-//W3C//DTD SVG 1.1//EN" "http://www.w3.org/Graphics/SVG/1.1/DTD/svg11.dtd"><svg t="1709705881736" class="icon" viewBox="0 0 1024 1024" version="1.1" xmlns="http://www.w3.org/2000/svg" p-id="6140" xmlns:xlink="http://www.w3.org/1999/xlink" width="200" height="200"><path d="M411.085714 520.342857L14.971429 852.228571C9.028571 857.142857 0 852.914286 0 845.142857V181.371429c0-7.771429 9.028571-12 14.971429-6.971429L411.085714 506.285714c4.342857 3.657143 4.342857 10.4 0 14.057143zM547.428571 915.657143h-73.142857c-5.028571 0-9.142857-4.114286-9.142857-9.142857v-786.285715c0-5.028571 4.114286-9.142857 9.142857-9.142857h73.142857c5.028571 0 9.142857 4.114286 9.142858 9.142857v786.285715c0 5.028571-4.114286 9.142857-9.142858 9.142857zM1009.028571 174.4L610.742857 506.285714c-4.342857 3.657143-4.342857 10.4 0 14.057143l398.285714 332c5.942857 4.914286 14.971429 0.685714 14.971429-6.971428V181.485714c0-7.885714-9.028571-12.114286-14.971429-7.085714zM745.942857 513.371429l186.285714-155.657143 0.342858 312-186.628572-156.342857z" p-id="6141"></path></svg>