<?xml version="1.0" standalone="no"?><!DOCTYPE svg PUBLIC "-//W3C//DTD SVG 1.1//EN" "http://www.w3.org/Graphics/SVG/1.1/DTD/svg11.dtd"><svg t="1706518940100" class="icon" viewBox="0 0 1024 1024" version="1.1" xmlns="http://www.w3.org/2000/svg" p-id="12378" xmlns:xlink="http://www.w3.org/1999/xlink" width="200" height="200"><path d="M878.933333 507.345455c0.775758-20.169697-6.981818-27.151515-27.151515-26.375758-38.787879 0.775758-77.575758 0.775758-116.363636 0s-26.375758 15.515152-27.151515 35.684848 0.775758 35.684848 27.927272 34.909091 45.769697 0 69.818182 0c0.775758 8.533333 3.10303 17.066667 1.551515 17.842425-26.375758 15.515152-34.133333 58.957576-76.8 48.872727-13.187879-3.10303-27.927273-0.775758-42.666666-0.775758a78.351515 78.351515 0 0 1-78.351515-80.678788v-38.787878c0-53.527273 32.581818-86.109091 85.333333-84.557576h38.787879c18.618182 0.775758 37.236364-5.430303 45.769697 22.49697 2.327273 7.757576 35.684848 13.963636 50.424242 7.757575s13.187879-30.254545 12.412121-45.769697-17.842424-14.739394-28.70303-20.169697-24.048485-8.533333-35.684849-13.963636-20.169697-17.842424-27.927272-16.290909c-51.2 10.084848-110.157576-28.70303-155.151515 28.70303-21.721212 27.151515-58.181818 41.890909-53.527273 86.109091a516.654545 516.654545 0 0 1 0.775757 54.30303c0 76.8-1.551515 77.575758 35.684849 125.672728 13.187879 17.066667 34.133333 38.012121 52.751515 40.339394 57.406061 5.430303 115.587879 1.551515 163.684849 1.551515a452.266667 452.266667 0 0 0 36.460606-32.581818c16.290909-19.393939 38.787879-37.236364 45.769697-59.733334s1.551515-55.854545 2.327272-84.557575zM449.939394 408.824242l-3.878788-59.733333H148.169697v332.8h62.060606c4.654545-63.612121 4.654545-63.612121 69.818182-63.612121h3.878788c35.684848-8.533333 83.781818 24.824242 105.50303-31.806061 0.775758-1.551515 6.981818-2.327273 10.860606-2.327272 27.927273 3.878788 40.339394-19.393939 58.957576-29.478788 38.012121-20.169697 17.066667-46.545455 22.49697-69.042425s-0.775758-23.272727 0.775757-34.90909c3.10303-24.824242-3.878788-41.890909-32.581818-41.89091z m-40.339394 85.333334c-10.860606 20.945455-32.581818 46.545455-53.527273 49.648485-44.993939 7.757576-91.539394 2.327273-142.739394 2.327272 0-37.236364-2.327273-72.145455 1.551515-105.50303 0.775758-10.084848 17.066667-24.824242 27.151516-25.6a936.339394 936.339394 0 0 1 111.709091-0.775758c29.478788 1.551515 69.042424 55.078788 55.854545 79.903031z" fill="#FFFFFF" p-id="12379"></path><path d="M1010.812121 410.375758C962.715152 192.387879 802.133333 42.666667 579.490909 7.757576A109.381818 109.381818 0 0 1 558.545455 0H465.454545c-31.030303 7.757576-62.060606 13.187879-92.315151 23.272727Q64.387879 121.018182 8.533333 440.630303A168.339394 168.339394 0 0 1 0 465.454545v93.09091c4.654545 18.618182 9.309091 37.236364 13.187879 55.078787 48.09697 217.987879 208.678788 366.933333 431.321212 401.842425a111.709091 111.709091 0 0 1 20.945454 7.757575h93.09091l55.854545-13.187878c217.987879-48.872727 366.933333-208.678788 401.842424-431.321212a108.606061 108.606061 0 0 1 7.757576-20.945455V465.454545c-4.654545-18.618182-9.309091-37.236364-13.187879-55.078787zM876.606061 591.90303c-6.981818 22.49697-29.478788 40.339394-45.769697 59.733334a452.266667 452.266667 0 0 1-36.460606 32.581818c-47.321212 0-105.50303 3.10303-163.684849-1.551515-18.618182-1.551515-39.563636-22.49697-52.751515-40.339394-37.236364-48.09697-35.684848-48.872727-35.684849-125.672728a516.654545 516.654545 0 0 0-0.775757-54.30303C536.824242 418.909091 574.060606 403.393939 595.006061 376.242424c44.993939-57.406061 103.951515-18.618182 155.151515-28.70303 7.757576-1.551515 17.842424 11.636364 27.927272 16.290909s24.048485 8.533333 35.684849 13.963636 27.927273 12.412121 28.70303 20.169697-3.10303 42.666667-12.412121 45.769697-48.09697 0-50.424242-7.757575c-8.533333-27.927273-27.151515-22.49697-45.769697-22.49697h-38.787879c-52.751515-0.775758-84.557576 31.030303-85.333333 84.557576v38.787878a78.351515 78.351515 0 0 0 78.351515 79.903031c13.963636 0 28.70303-2.327273 42.666666 0.775757 43.442424 10.084848 51.2-34.133333 76.8-48.872727 1.551515-0.775758-0.775758-9.309091-1.551515-17.842424-24.048485 0-47.321212-0.775758-69.818182 0s-27.927273-13.187879-27.927272-34.909091-0.775758-36.460606 27.151515-35.684849 77.575758 1.551515 116.363636 0c20.169697-0.775758 27.927273 6.981818 27.151515 26.375758s5.430303 59.733333-2.327272 85.333333zM480.969697 486.4c-5.430303 22.49697 15.515152 48.872727-22.49697 69.042424-18.618182 9.309091-31.030303 33.357576-58.957575 29.478788-3.878788-0.775758-10.084848 0-10.860607 2.327273-20.945455 56.630303-69.818182 23.272727-105.50303 31.80606H279.272727c-65.163636 0-65.163636 0-69.818182 63.612122h-62.060606V349.090909h298.666667l3.878788 59.733333c29.478788 0 35.684848 17.066667 31.806061 42.666667-1.551515 11.636364 1.551515 24.048485-0.775758 34.909091z" fill="#D7441C" p-id="12380"></path><path d="M354.521212 414.254545a936.339394 936.339394 0 0 0-111.709091 0.775758c-10.084848 0.775758-26.375758 16.290909-27.151515 25.6-3.10303 34.133333-1.551515 68.266667-1.551515 105.50303 51.2 0 97.745455 5.430303 142.739394-2.327272 20.169697-3.10303 41.890909-28.70303 53.527273-49.648485s-27.151515-78.351515-55.854546-79.903031z" fill="#D7441C" p-id="12381"></path></svg>