<?xml version="1.0" standalone="no"?><!DOCTYPE svg PUBLIC "-//W3C//DTD SVG 1.1//EN" "http://www.w3.org/Graphics/SVG/1.1/DTD/svg11.dtd"><svg t="1729559924072" class="icon" viewBox="0 0 1024 1024" version="1.1" xmlns="http://www.w3.org/2000/svg" p-id="4325" xmlns:xlink="http://www.w3.org/1999/xlink" width="256" height="256"><path d="M900 64H124c-33.137 0-60 26.863-60 60v776c0 33.137 26.863 60 60 60h776c33.137 0 60-26.863 60-60V124c0-33.137-26.863-60-60-60z m-30 758.054c0 26.48-21.466 47.946-47.946 47.946H201.946C175.466 870 154 848.534 154 822.054V424.5h716v397.554z m0-487.554H154V201.946c0-26.48 21.466-47.946 47.946-47.946h620.107c26.48 0 47.946 21.466 47.946 47.946V334.5z" fill="#74C0FC" p-id="4326"></path><path d="M556.03 524.508l63.64 63.639L467.97 739.845l-63.639-63.64zM390.375 721.279l-89.096-89.095 89.096-89.095-63.64-63.64L174 632.184l152.735 152.735zM697.265 784.919L850 632.184 697.265 479.449l-63.64 63.64 89.096 89.095-89.096 89.095z" fill="#74C0FC" p-id="4327"></path></svg>