<?xml version="1.0" standalone="no"?><!DOCTYPE svg PUBLIC "-//W3C//DTD SVG 1.1//EN" "http://www.w3.org/Graphics/SVG/1.1/DTD/svg11.dtd"><svg t="1705569185555" class="icon" viewBox="0 0 1024 1024" version="1.1" xmlns="http://www.w3.org/2000/svg" p-id="6964" xmlns:xlink="http://www.w3.org/1999/xlink" width="200" height="200"><path d="M493.824044 916.909687a63.171128 63.171128 0 1 0-63.193231 63.193231 63.281644 63.281644 0 0 0 63.193231-63.193231z m-82.157831 0a18.9646 18.9646 0 1 1 18.9646 18.986704 19.008807 19.008807 0 0 1-18.9646-18.986704z" p-id="6965"></path><path d="M891.152312 498.649629a65.138318 65.138318 0 1 0-10.056985-44.206528H720.493013v-66.309791h221.032637v-44.206527H720.493013v-44.206527h-22.103263v-221.032637h-44.206528v221.032637h-66.309791V145.174236a63.171128 63.171128 0 1 0-37.04507-0.176826H543.666904v154.722846h-66.309791v-132.619583h-110.516319V126.718011a64.47522 64.47522 0 1 0-44.206527-2.342946v175.345191h-44.206527v88.413054H13.188575v44.206528h265.239165v66.309791H57.395103v44.206527h221.032637v44.206527H140.039206a64.563633 64.563633 0 1 0 6.343636 44.206528H278.42774v110.516318h22.103263v198.929373h44.206528v-198.929373h66.309791v132.619582h44.206527v-132.619582h66.309791v110.516319h110.516319v45.422207a64.519427 64.519427 0 1 0 44.206527 1.370402V741.785529h44.206527v-44.206527h176.82611v-44.206527h-176.82611v-44.206528h287.342428v-44.206527H720.493013v-66.309791zM945.106379 442.065274a20.666552 20.666552 0 1 1-20.644448 20.666551 20.710758 20.710758 0 0 1 20.644448-20.666551zM569.660342 66.022449a18.9646 18.9646 0 1 1-18.986704 18.9646 19.008807 19.008807 0 0 1 18.986704-18.9646zM83.079095 638.121223A20.666552 20.666552 0 1 1 101.60163 608.657572v17.682611a20.622345 20.622345 0 0 1-18.522535 11.78104z m265.239164-593.914696a20.666552 20.666552 0 1 1-20.644448 20.666552 20.710758 20.710758 0 0 1 20.644448-20.666552zM366.840794 211.307201h66.309791v88.413055h-66.309791z m285.132102 768.486272a20.666552 20.666552 0 1 1 20.644448-20.666552 20.688655 20.688655 0 0 1-20.644448 20.666552zM632.079959 808.09532h-66.309791v-66.309791h66.309791z m44.206527-110.516318H322.634267v-353.652219h353.652219z" p-id="6966"></path><path d="M609.976695 410.236574H388.944058v221.032637h221.032637z m-44.206527 176.826109h-132.619583v-132.619582h132.619583z" p-id="6967"></path></svg>