<?xml version="1.0" standalone="no"?><!DOCTYPE svg PUBLIC "-//W3C//DTD SVG 1.1//EN" "http://www.w3.org/Graphics/SVG/1.1/DTD/svg11.dtd"><svg t="1705632865266" class="icon" viewBox="0 0 1024 1024" version="1.1" xmlns="http://www.w3.org/2000/svg" p-id="36438" xmlns:xlink="http://www.w3.org/1999/xlink" width="200" height="200"><path d="M568.896 512h-14.208v-32H512V128h184.896v352H611.584v32h-14.272v48h-28.352V512h-0.064z m142.208 352H312.96v32H0v-64h1024v64h-312.896v-32zM981.312 320v80h28.48V288h-170.752v112h28.48V320h113.792z m-227.52 352V256H1024v544H0v-128h753.792zM0 272h412.416V640H0V272zM154.688 352a112 112 0 1 0 0 224h74.624a112 112 0 1 0 0-224h-74.624z m215.04 16v192H384v-192h-14.272z m469.376 224V640h71.104v-48h-71.104z m0-192V576h170.688V400h-170.752 0.064z m-398.208 192h284.416V640H440.96v-48h-0.064z m184.896-192V448h42.624V400h-42.624z m0-48V384h42.624v-32h-42.624z m355.52-144h28.48v32h-28.48v-32z m0-32h28.48V192h-28.48v-16z m0-48h28.48v32h-28.48V128z" fill="#29333E" p-id="36439"></path></svg>