<?xml version="1.0" standalone="no"?><!DOCTYPE svg PUBLIC "-//W3C//DTD SVG 1.1//EN" "http://www.w3.org/Graphics/SVG/1.1/DTD/svg11.dtd"><svg t="1729558764276" class="icon" viewBox="0 0 1024 1024" version="1.1" xmlns="http://www.w3.org/2000/svg" p-id="15880" xmlns:xlink="http://www.w3.org/1999/xlink" width="256" height="256"><path d="M112 275.3c1.7-0.1 3.3-0.3 5-0.3 22.3 0 44.5 0 66.8-0.1 6.8 0 12.9 1.8 18.2 7.1 3.9 3.9 6.9 9 7 15.1 0.3 24.6 0.2 49.1 0.2 73.7 0 0.2-0.1 0.4-0.3 1-1 0.1-2 0.2-3.1 0.2h-89.7c-1.4 0-2.8-0.2-4.1-0.4v-96.3zM903 372.3c0.3 1.6 0.6 3.2 0.8 4.9 1.8 11.7 3.6 23.5 5.2 35.2 4.2 29 3.2 58.2 1 87.3-0.7 8.9-2 17.8-3.5 26.5-2 11.4-4.2 22.8-7.1 33.9-3 11.7-6.7 23.3-10.6 34.7-3.1 9.2-6.8 18.1-10.7 26.9-4.2 9.4-8.8 18.7-13.7 27.6-5.6 10-11.3 19.9-17.7 29.2-7.1 10.5-14.9 20.3-22.6 30.3-3.9 5-8.1 9.7-11.9 14.2 3 3.9 5.7 7.8 8.7 11.3 5.4 6.3 11 12.5 16.6 18.6 5.2 5.8 10.5 11.4 15.6 17.2 5.3 5.9 10.5 11.8 15.6 17.8 2.7 3.2 5.6 6.3 7.9 10 2.3 3.9 4.6 8.1 5.8 12.6 2.6 9.5 2.4 19.3-0.6 28.7-2.7 8.3-7.6 14.8-13.5 20.2-7.4 6.9-15.4 12.4-24.8 14.4-16 3.4-30.9 0.1-43.9-11.9-5.5-5.1-10.3-11.4-15.4-17.1l-19.5-21.6c-5.1-5.7-10.2-11.5-15.3-17.3-4.1-4.6-8-9.4-12.2-13.9-0.6-0.7-2.2-0.7-3-0.2-11.7 6.9-23.2 14.3-35.1 20.8-17.3 9.5-35.2 17.2-53.5 23.7-30.9 10.9-62.3 17.9-94.4 21-34 3.3-67.9 2.4-101.7-2.9-27.1-4.2-53.7-11.3-79.8-21.1-18.2-6.9-36-15.2-53.4-24.9-18.1-10.1-35.7-21.4-52.2-34.9-12.8-10.4-25.1-21.7-37.1-33.5-9.8-9.7-19.1-20.4-28-31.4-7.6-9.3-14.7-19.4-21.5-29.6-6.1-9.2-11.9-18.8-17.3-28.6-5.1-9.3-9.9-19-14.3-28.9-4-8.8-7.6-17.9-10.8-27.2-3.7-10.6-7.2-21.3-10.1-32.2-2.9-10.9-5.2-22.1-7.3-33.4-1.6-8.5-2.4-17.1-3.8-25.7-0.6-3.9-1.3-7.5-0.2-11.8 3.2-12.3 10.7-17.1 20.3-18.6 4.4-0.7 8.9-0.3 13.4-0.3H209c0.5 6.5 0.7 12.7 1.5 18.8 1.2 9.4 2.4 18.9 4.3 28.1 1.9 9.2 4.2 18.3 7 27.2 3.2 10.1 6.7 20 10.8 29.6 4.1 9.6 8.6 19.1 13.7 28 6.7 11.6 13.8 23 21.5 33.6 7.4 10.2 15.7 19.6 24 28.7 10.3 11.2 21.2 21.5 33.2 30 12.1 8.7 24.3 17.3 36.9 25 16.1 9.8 33.1 17.1 50.4 23.1 28.8 10 58.1 15.4 88 16.5 23.1 0.8 46-0.9 68.9-5.4 19.9-3.9 39.4-9.7 58.4-17.7 16.5-7 32.8-14.9 47.9-25.6 12.6-8.9 25-18.1 37-28.1 8-6.7 15.5-14.6 22.7-22.7 8.1-9.1 15.8-18.7 23.3-28.6 4.4-5.7 8.2-12.1 11.9-18.5 5.6-9.7 11-19.5 16-29.6 3.2-6.5 5.9-13.4 8.3-20.4 3.5-10.1 7-20.3 9.9-30.7 2.2-8.2 3.9-16.8 5.1-25.3 1.6-10.7 2.8-21.4 3.6-32.2 0.7-8.9 1.3-17.9 0.9-26.8-0.6-12.7-2.1-25.4-3.4-38.1-0.3-2.8-1.1-5.5-1.7-8.2-3.8-17.3 7-29 19.3-30.9 0.9-0.1 1.8-0.2 2.7-0.2h70.3c0.7 0.1 1.1 0.3 1.6 0.4z" fill="#74C0FC" p-id="15881"></path><path d="M305.4 283.5c2.3-5.1 6.1-7.1 11.9-7.1 125 0.1 249.9 0.1 374.9 0.1 3.7 0 7 0.6 9.8 3.3 3.1 2.9 3 4.5-0.2 7.2-6.8 5.8-13.4 12-20.1 18-5.4 4.9-10.8 9.8-16.4 14.4-1.1 0.9-3.2 1.1-4.8 1.2-29.8 0.1-59.7 0.1-89.5 0.1H352.9v285.2h303.7v-4.5c0-26.3 0-52.5-0.1-78.8 0-3.1 0.9-5.2 3.5-6.6 0.9-0.5 1.6-1.2 2.3-1.9 7.6-7.6 15.1-15.2 22.7-22.7 6.1-6.1 12.4-12.1 19.6-19.1v8.8c0 52.1-0.2 104.2 0.2 156.2 0.1 9.3-5.4 13.2-13.1 13.2-89.7-0.2-179.3-0.1-269-0.1-34.9 0-69.7-0.1-104.6 0.1-5.9 0-10.4-1.4-12.8-7.1 0.1-120 0.1-239.9 0.1-359.9z" fill="#74C0FC" p-id="15882"></path><path d="M775.4 355.9c-9.4 9-18.9 18.1-28.3 27.1-9.7 9.2-19.5 18.4-29.3 27.6-9.4 8.8-18.7 17.6-28.1 26.4-13.8 13-27.7 25.9-41.6 38.9-9 8.4-17.9 16.8-26.8 25.2-9.7 9.1-19.3 18.2-29 27.3-9.1 8.6-18.3 17.2-27.5 25.7-3.5 3.3-7.2 6.5-10.7 9.8-4.9 4.6-10.7 4.6-15.5 0-14.5-13.7-29-27.4-43.4-41.1l-26.7-25.2c-9.5-9-19.1-18-28.6-26.9-1-0.9-2.3-1.6-3.4-2.5-5.5-4.8-5.3-11.2 0.2-15.8 2.1-1.7 4.1-3.4 6.1-5.3 9.1-8.4 18.1-16.9 27.1-25.3 3.5-3.3 9.5-3.1 13.2 0.3 4 3.6 8 7.3 11.9 11.1 8 7.6 15.8 15.3 23.8 22.9 8.9 8.4 18 16.6 27.3 25.3 2.1-1.8 4.4-3.5 6.4-5.4l36-34.2c9.3-8.8 18.7-17.6 28.1-26.4 13.7-12.9 27.5-25.7 41.2-38.6 9.3-8.7 18.5-17.4 27.8-26.1 9.5-8.9 18.9-17.8 28.4-26.6 3.2-3 6.5-6 9.8-8.9 5-4.4 10.1-4.1 14.9 0.3 11.2 10.4 22.4 20.6 33.6 31 1.3 1.2 2.2 2.9 3.2 4.3-0.1 1.6-0.1 3.3-0.1 5.1z" fill="#74C0FC" p-id="15883"></path></svg>