<?xml version="1.0" standalone="no"?><!DOCTYPE svg PUBLIC "-//W3C//DTD SVG 1.1//EN" "http://www.w3.org/Graphics/SVG/1.1/DTD/svg11.dtd"><svg t="1729558946121" class="icon" viewBox="0 0 1024 1024" version="1.1" xmlns="http://www.w3.org/2000/svg" p-id="17533" xmlns:xlink="http://www.w3.org/1999/xlink" width="256" height="256"><path d="M870.6 266.4L526.1 105.1c-9.1-4.4-19.7-4.3-28.8 0.1l-344.4 165c-11.8 5.5-19.3 17.3-19.3 30.4v102.1C133 584.5 224.7 754.2 377 853.5l96.9 63.8c12.5 8.4 27.2 12.9 42.3 13 15.1 0.1 6.5 0.1 16.5-2.2 5.3-1.1 10.5-2.7 15.4-4.9 4.2-1.8 8.6-3.2 12.5-5.8l6.8-4.6 0.1-0.1 86-58.2c14.5-9.5 28.4-20 41.7-31.3 0.6-0.5 0.8-1.2 1.4-1.7l1.3-1s26.5-25.6 57-60.2c-13.1 8.7-30.5 6.9-41.6-4.3l-99-99.1c-26.8 17.9-58.1 27.7-90.4 28.1h-1.7c-79.9-0.1-148.6-56.5-164.3-134.8-15.4-78.5 26.7-156.9 100.5-187.6 74-30.3 159.1-4.3 203.5 62.2 36.8 55.6 36.6 129-0.1 184.7l99 99.1c9.5 9.6 12.4 23.9 7.2 36.4-0.2 0.7-0.9 0.9-1.2 1.5 31.2-36.8 63.6-80.9 75.2-117.1v-0.9c31.4-69.6 47.7-145.1 47.9-221.4V296.9c0.1-13-7.5-24.9-19.3-30.5z m0 0" fill="#74C0FC" p-id="17534"></path><path d="M425.1 499.2c-9.1 46.5 15.7 92.9 59.4 111.2 43.8 18.1 94.3 2.9 120.8-36.5 26.2-39.5 21-91.9-12.3-125.6-25.9-26-64.1-35.6-99.2-25-35.2 10.8-61.6 39.9-68.7 75.9z m0 0" fill="#74C0FC" p-id="17535"></path></svg>