<?xml version="1.0" standalone="no"?><!DOCTYPE svg PUBLIC "-//W3C//DTD SVG 1.1//EN" "http://www.w3.org/Graphics/SVG/1.1/DTD/svg11.dtd"><svg t="1729561220628" class="icon" viewBox="0 0 1024 1024" version="1.1" xmlns="http://www.w3.org/2000/svg" p-id="13171" xmlns:xlink="http://www.w3.org/1999/xlink" width="256" height="256"><path d="M512 640c-94.2592 0-205.184-42.6752-332.8-128 127.616-85.3248 238.5408-128 332.8-128 94.2592 0 205.184 42.6752 332.8 128-127.616 85.3248-238.5408 128-332.8 128z m0-51.2a76.8 76.8 0 1 0 0-153.6 76.8 76.8 0 0 0 0 153.6z" fill="#13227a" p-id="13172"></path><path d="M143.872 201.9328a25.6 25.6 0 0 0-15.616 24.5504l11.8272 319.5392a393.728 393.728 0 0 0 188.2112 321.4336l163.7888 100.0704a25.6 25.6 0 0 0 26.7008 0l163.6352-100.0448a393.6512 393.6512 0 0 0 188.0576-321.3056l11.8272-319.6928a25.6 25.6 0 0 0-15.6416-24.5248L515.072 53.9648a25.6 25.6 0 0 0-19.8912 0L143.872 201.9328z m-19.8656-47.1808L475.3152 6.784a76.8 76.8 0 0 1 59.5968 0l351.616 147.968a76.8 76.8 0 0 1 46.9504 73.6256l-11.8528 319.6928a444.8512 444.8512 0 0 1-212.48 363.0848L545.4592 1011.2a76.8 76.8 0 0 1-80.1024 0l-163.7888-100.0448A444.928 444.928 0 0 1 88.9088 547.9168L77.0816 228.3776a76.8 76.8 0 0 1 46.9248-73.6256z" fill="#13227a" p-id="13173"></path></svg>