<?xml version="1.0" standalone="no"?><!DOCTYPE svg PUBLIC "-//W3C//DTD SVG 1.1//EN" "http://www.w3.org/Graphics/SVG/1.1/DTD/svg11.dtd"><svg t="1729558860348" class="icon" viewBox="0 0 1024 1024" version="1.1" xmlns="http://www.w3.org/2000/svg" p-id="16967" xmlns:xlink="http://www.w3.org/1999/xlink" width="256" height="256"><path d="M1010.013057 946.075535L903.117511 840.179012l3.996095-4.995119a510.50116 510.50116 0 1 0-395.613423 188.815498c51.949237 0 104.897499-8.991214 158.844784-25.974619h0.999024a43.957047 43.957047 0 0 0 37.962904-43.957047 44.956071 44.956071 0 0 0-44.956071-44.956071h-4.995119l-11.988285 1.998048h-0.999024a416.592923 416.592923 0 0 1-138.864308 23.976571C272.733496 933.088225 81.919951 742.27468 81.919951 508.503112S272.733496 82.918975 507.504088 82.918975s424.585113 190.813545 424.585113 425.584137c0 105.896522-38.961928 207.79695-110.891641 286.719829l-12.987309 12.98731a43.957047 43.957047 0 0 0 0 62.938499l138.864307 138.864307a43.957047 43.957047 0 0 0 62.938499 0 42.958023 42.958023 0 0 0 12.98731-30.969737 44.956071 44.956071 0 0 0-12.98731-32.967785z" p-id="16968" fill="#74C0FC"></path><path d="M256.749115 611.402563a7.99219 7.99219 0 0 0-7.99219 7.99219v38.961928c0 8.991214-0.999024 11.988286-1.998047 12.98731h-3.996096a7.99219 7.99219 0 0 0-7.99219 7.99219v53.947285a7.99219 7.99219 0 0 0 2.997071 5.994143l4.995119 1.998047h0.999024c17.982428-0.999024 32.967785-6.993167 43.957047-14.985357s29.970714-36.96388 29.970714-65.93557v-40.959976a7.99219 7.99219 0 0 0-7.99219-7.99219z" p-id="16969" fill="#74C0FC"></path><path d="M402.60659 611.402563m7.99219 0l52.948261 0q7.99219 0 7.992191 7.99219l0 111.950607q0 7.99219-7.992191 7.99219l-52.948261 0q-7.99219 0-7.99219-7.99219l0-111.950607q0-7.99219 7.99219-7.99219Z" p-id="16970" fill="#74C0FC"></path><path d="M556.456254 611.402563m7.992191 0l52.948261 0q7.99219 0 7.99219 7.99219l0 111.950607q0 7.99219-7.99219 7.99219l-52.948261 0q-7.99219 0-7.992191-7.99219l0-111.950607q0-7.99219 7.992191-7.99219Z" p-id="16971" fill="#74C0FC"></path><path d="M753.263942 561.451373c14.985357-14.985357 22.977547-34.965833 22.977547-58.942404v-73.927761c0-18.981452-7.99219-35.964857-22.977547-50.950213s-36.96388-22.977547-62.938499-22.977548H446.563637v-30.969737h316.690543a7.99219 7.99219 0 0 0 7.99219-7.992191v-52.948261a7.99219 7.99219 0 0 0-7.99219-7.99219H446.563637v-21.978524a7.99219 7.99219 0 0 0-7.992191-7.99219h-52.948261a7.99219 7.99219 0 0 0-7.99219 7.99219v121.880903h-43.957047c-27.972666 0-47.953142 4.995119-61.939476 14.985357s-32.967785 36.96388-32.967785 63.937523v68.932642c0 26.973642 7.99219 46.954118 23.976571 60.940452s38.961928 19.980476 68.932642 19.980476h359.648567c26.973642 0.999024 47.953142-6.993167 61.939475-21.978524z m-414.594875-45.955094c-13.986333 0-19.980476-2.997071-22.977548-4.995119-4.995119-3.996095-7.99219-13.986333-7.99219-28.97169v-29.970714c0-7.99219 1.998048-14.985357 6.993167-19.980476s10.989262-6.993167 18.981452-6.993167h340.667114c29.970714 0 32.967785 13.986333 32.967785 26.973643v29.970714c0 18.981452-3.996095 25.974619-6.993166 27.972666-4.995119 4.995119-11.988286 6.993167-20.9795 6.993166z" p-id="16972" fill="#74C0FC"></path><path d="M712.303966 611.402563m7.992191 0l52.948261 0q7.99219 0 7.99219 7.99219l0 111.950607q0 7.99219-7.99219 7.99219l-52.948261 0q-7.99219 0-7.992191-7.99219l0-111.950607q0-7.99219 7.992191-7.99219Z" p-id="16973" fill="#74C0FC"></path></svg>