<?xml version="1.0" standalone="no"?><!DOCTYPE svg PUBLIC "-//W3C//DTD SVG 1.1//EN" "http://www.w3.org/Graphics/SVG/1.1/DTD/svg11.dtd"><svg t="1729558924201" class="icon" viewBox="0 0 1024 1024" version="1.1" xmlns="http://www.w3.org/2000/svg" p-id="17174" xmlns:xlink="http://www.w3.org/1999/xlink" width="256" height="256"><path d="M480.304762 553.447619l-99.961905-99.961905-53.638095 53.638096 158.47619 156.038095 290.133334-334.019048-56.076191-51.2z" p-id="17175" fill="#74C0FC"></path><path d="M536.380952 24.380952C295.009524 24.380952 97.52381 221.866667 97.52381 463.238095c0 109.714286 41.447619 209.67619 107.27619 287.695238L14.628571 941.104762l68.266667 68.266667 192.609524-192.609524C348.647619 870.4 438.857143 902.095238 536.380952 902.095238c241.371429 0 438.857143-197.485714 438.857143-438.857143S777.752381 24.380952 536.380952 24.380952z m0 780.190477c-187.733333 0-341.333333-153.6-341.333333-341.333334S348.647619 121.904762 536.380952 121.904762s341.333333 153.6 341.333334 341.333333-153.6 341.333333-341.333334 341.333334z" p-id="17176" fill="#74C0FC"></path></svg>