<?xml version="1.0" standalone="no"?><!DOCTYPE svg PUBLIC "-//W3C//DTD SVG 1.1//EN" "http://www.w3.org/Graphics/SVG/1.1/DTD/svg11.dtd"><svg t="1729559087999" class="icon" viewBox="0 0 1024 1024" version="1.1" xmlns="http://www.w3.org/2000/svg" p-id="19735" xmlns:xlink="http://www.w3.org/1999/xlink" width="256" height="256"><path d="M154.672762 171.76381l334.579809-140.921905a73.142857 73.142857 0 0 1 56.758858 0l334.872381 140.921905a73.142857 73.142857 0 0 1 44.714666 70.119619l-11.288381 304.469333a423.66781 423.66781 0 0 1-202.361905 345.795048L556.056381 987.428571a73.142857 73.142857 0 0 1-76.288 0l-155.989333-95.280761a423.740952 423.740952 0 0 1-202.556953-345.941334L109.982476 241.883429a73.142857 73.142857 0 0 1 44.690286-70.119619zM524.190476 633.904762c89.770667 0 195.413333-40.643048 316.952381-121.904762-121.539048-81.261714-227.181714-121.904762-316.952381-121.904762-89.770667 0-195.413333 40.643048-316.952381 121.904762 121.539048 81.261714 227.181714 121.904762 316.952381 121.904762z m0-48.761905a73.142857 73.142857 0 1 1 0-146.285714 73.142857 73.142857 0 0 1 0 146.285714z" fill="#74C0FC" p-id="19736"></path></svg>