<?xml version="1.0" standalone="no"?><!DOCTYPE svg PUBLIC "-//W3C//DTD SVG 1.1//EN" "http://www.w3.org/Graphics/SVG/1.1/DTD/svg11.dtd"><svg t="1705569086805" class="icon" viewBox="0 0 1457 1024" version="1.1" xmlns="http://www.w3.org/2000/svg" p-id="6561" xmlns:xlink="http://www.w3.org/1999/xlink" width="284.5703125" height="200"><path d="M29.049645 196.085106h94.411348c16.945626 0 29.049645-12.104019 29.049645-29.049645v-2.420804c0-16.945626-12.104019-29.049645-29.049645-29.049645H29.049645C12.104019 135.565012 0 147.669031 0 164.614657v2.420804c0 16.945626 12.104019 29.049645 29.049645 29.049645zM29.049645 370.382979h94.411348c16.945626 0 29.049645-12.104019 29.049645-29.049646V338.91253c0-16.945626-12.104019-29.049645-29.049645-29.049646H29.049645c-16.945626 0-29.049645 12.104019-29.049645 29.049646v2.420803c0 14.524823 12.104019 29.049645 29.049645 29.049646zM29.049645 542.260047h94.411348c16.945626 0 29.049645-12.104019 29.049645-29.049645v-2.420804c0-16.945626-12.104019-29.049645-29.049645-29.049645H29.049645c-16.945626 0-29.049645 12.104019-29.049645 29.049645v2.420804c0 16.945626 12.104019 29.049645 29.049645 29.049645zM29.049645 714.137116h94.411348c16.945626 0 29.049645-12.104019 29.049645-29.049646v-2.420803c0-16.945626-12.104019-29.049645-29.049645-29.049646H29.049645c-16.945626 0-29.049645 12.104019-29.049645 29.049646v2.420803c0 16.945626 12.104019 29.049645 29.049645 29.049646zM29.049645 888.434988h94.411348c16.945626 0 29.049645-12.104019 29.049645-29.049645v-2.420804c0-16.945626-12.104019-29.049645-29.049645-29.049645H29.049645c-16.945626 0-29.049645 12.104019-29.049645 29.049645v2.420804c0 14.524823 12.104019 29.049645 29.049645 29.049645z" p-id="6562"></path><path d="M1333.862884 196.085106H1428.274232c16.945626 0 29.049645-12.104019 29.049645-29.049645v-2.420804c0-16.945626-12.104019-29.049645-29.049645-29.049645h-94.411348c-16.945626 0-29.049645 12.104019-29.049645 29.049645v2.420804c0 16.945626 12.104019 29.049645 29.049645 29.049645zM1333.862884 370.382979H1428.274232c16.945626 0 29.049645-12.104019 29.049645-29.049646V338.91253c0-16.945626-12.104019-29.049645-29.049645-29.049646h-94.411348c-16.945626 0-29.049645 12.104019-29.049645 29.049646v2.420803c0 14.524823 12.104019 29.049645 29.049645 29.049646zM1333.862884 542.260047H1428.274232c16.945626 0 29.049645-12.104019 29.049645-29.049645v-2.420804c0-16.945626-12.104019-29.049645-29.049645-29.049645h-94.411348c-16.945626 0-29.049645 12.104019-29.049645 29.049645v2.420804c0 16.945626 12.104019 29.049645 29.049645 29.049645zM1333.862884 714.137116H1428.274232c16.945626 0 29.049645-12.104019 29.049645-29.049646v-2.420803c0-16.945626-12.104019-29.049645-29.049645-29.049646h-94.411348c-16.945626 0-29.049645 12.104019-29.049645 29.049646v2.420803c0 16.945626 12.104019 29.049645 29.049645 29.049646zM1333.862884 888.434988H1428.274232c16.945626 0 29.049645-12.104019 29.049645-29.049645v-2.420804c0-16.945626-12.104019-29.049645-29.049645-29.049645h-94.411348c-16.945626 0-29.049645 12.104019-29.049645 29.049645v2.420804c0 14.524823 12.104019 29.049645 29.049645 29.049645z" p-id="6563"></path><path d="M767.394799 636.671395c12.104019 0 24.208038 4.841608 33.891253 9.683215l133.144208-77.465721h2.420804c2.420804 0 2.420804-2.420804 4.841607-2.420804s4.841608 0 7.262412-2.420804H1239.451537v-435.744681C1239.451537 58.099291 1183.77305 0 1113.56974 0H346.174941C275.971631 0 217.87234 58.099291 217.87234 128.3026v268.70922h280.813239l125.881797-72.624113v-2.420804c0-36.312057 29.049645-65.361702 65.361702-65.361702 36.312057 0 65.361702 29.049645 65.361702 65.361702S726.241135 387.328605 689.929078 387.328605c-12.104019 0-24.208038-4.841608-33.891253-9.683215l-133.144208 77.465721h-2.420804c-2.420804 0-2.420804 2.420804-4.841607 2.420804s-4.841608 0-7.262412 2.420804H217.87234v435.744681c0 70.20331 58.099291 128.3026 128.302601 128.3026H1113.56974c70.20331 0 128.3026-58.099291 128.3026-128.3026V626.98818H958.638298l-125.881797 72.624113v2.420804c0 36.312057-29.049645 65.361702-65.361702 65.361702-36.312057 0-65.361702-29.049645-65.361702-65.361702s29.049645-65.361702 65.361702-65.361702z" p-id="6564"></path></svg>