<?xml version="1.0" standalone="no"?><!DOCTYPE svg PUBLIC "-//W3C//DTD SVG 1.1//EN" "http://www.w3.org/Graphics/SVG/1.1/DTD/svg11.dtd"><svg t="1705569817392" class="icon" viewBox="0 0 1024 1024" version="1.1" xmlns="http://www.w3.org/2000/svg" p-id="10537" xmlns:xlink="http://www.w3.org/1999/xlink" width="200" height="200"><path d="M469.333333 158.165333a21.333333 21.333333 0 0 0-6.250666-15.082666l-51.498667-51.498667A21.333333 21.333333 0 0 0 396.501333 85.333333H170.666667a85.333333 85.333333 0 0 0-85.333334 85.333334v682.666666a85.333333 85.333333 0 0 0 85.333334 85.333334h682.666666a85.333333 85.333333 0 0 0 85.333334-85.333334v-117.333333a10.666667 10.666667 0 0 0-10.666667-10.666667h-42.666667a10.666667 10.666667 0 0 0-10.666666 10.666667V853.333333a21.333333 21.333333 0 0 1-21.333334 21.333334H170.666667a21.333333 21.333333 0 0 1-21.333334-21.333334V170.666667a21.333333 21.333333 0 0 1 21.333334-21.333334h203.733333a10.666667 10.666667 0 0 1 7.552 3.114667l20.266667 20.266667A10.666667 10.666667 0 0 1 405.333333 180.266667v35.776a10.666667 10.666667 0 0 1-4.757333 8.874666l-113.749333 75.84a21.333333 21.333333 0 0 0-9.493334 17.749334V725.333333a85.333333 85.333333 0 0 0 85.333334 85.333334h298.666666a85.333333 85.333333 0 0 0 85.333334-85.333334V318.506667a21.333333 21.333333 0 0 0-9.493334-17.749334l-113.749333-75.84a10.666667 10.666667 0 0 1-4.757333-8.874666V180.266667a10.666667 10.666667 0 0 1 3.114666-7.552l20.266667-20.266667A10.666667 10.666667 0 0 1 649.6 149.333333H853.333333a21.333333 21.333333 0 0 1 21.333334 21.333334v480a10.666667 10.666667 0 0 0 10.666666 10.666666h42.666667a10.666667 10.666667 0 0 0 10.666667-10.666666V170.666667a85.333333 85.333333 0 0 0-85.333334-85.333334H627.498667a21.333333 21.333333 0 0 0-15.082667 6.250667l-51.498667 51.498667a21.333333 21.333333 0 0 0-6.250666 15.082666v86.4a21.333333 21.333333 0 0 0 9.493333 17.770667l113.749333 75.84a10.666667 10.666667 0 0 1 4.757334 8.874667V714.666667a32 32 0 0 1-32 32h-277.333334a32 32 0 0 1-32-32V347.050667a10.666667 10.666667 0 0 1 4.757334-8.874667l113.749333-75.84a21.333333 21.333333 0 0 0 9.493333-17.749333v-86.4z" fill="#626466" p-id="10538"></path><path d="M192 224a32 32 0 1 1 64 0 32 32 0 0 1-64 0zM224 768a32 32 0 1 0 0 64 32 32 0 0 0 0-64zM800 768a32 32 0 1 0 0 64 32 32 0 0 0 0-64zM800 192a32 32 0 1 0 0 64 32 32 0 0 0 0-64zM469.333333 458.666667a32 32 0 0 0-64 0v128a32 32 0 0 0 64 0v-128zM618.666667 458.666667a32 32 0 0 0-64 0v128a32 32 0 0 0 64 0v-128z" fill="#626466" p-id="10539"></path></svg>