<?xml version="1.0" standalone="no"?><!DOCTYPE svg PUBLIC "-//W3C//DTD SVG 1.1//EN" "http://www.w3.org/Graphics/SVG/1.1/DTD/svg11.dtd"><svg t="1729558464904" class="icon" viewBox="0 0 1024 1024" version="1.1" xmlns="http://www.w3.org/2000/svg" p-id="12667" xmlns:xlink="http://www.w3.org/1999/xlink" width="256" height="256"><path d="M297.6 274.8c10.8-13.6 22.8-26 36-37.2L268.4 174.4c-10.4-10-26.8-10-37.2 0-10.4 10-10.4 26 0 36l66.4 64.4zM509.2 172.8h0.8c8.4 0 17.2 0.4 25.6 1.2V87.6c0-14-11.6-25.6-26-25.6s-26 11.6-26 25.6v86.4c8.4-0.8 16.8-1.2 25.6-1.2zM720.8 274.8l66-64.4c10.4-10 10.4-26 0-36-10-10-26.8-10-37.2 0l-65.2 63.6c13.6 11.2 25.6 23.6 36.4 36.8zM233.2 456.4c0-12.4 1.2-24.4 2.4-36.4H142.4c-14.4 0-26 11.6-26 25.6 0 14 11.6 25.6 26 25.6h90.8v-14.8zM875.6 420h-93.2c1.6 12 2.4 24 2.4 36.4 0 5.2 0 10-0.4 14.8h90.8c14.4 0 26-11.6 26-25.6 0.8-14.4-10.8-25.6-25.6-25.6zM734.8 629.6c-10.8 15.2-22 28.4-32.8 40.4l48 46.8c10.4 10 26.8 10 37.2 0 10.4-10 10.4-26 0-36l-52.4-51.2zM231.2 680.4c-10.4 10-10.4 26 0 36s26.8 10 37.2 0l48-46.8c-10.8-12-22-25.2-32.8-40.4l-52.4 51.2zM534.4 223.2zM484 223.2zM573.2 810.4h-122c-12.8 0-22.8 10.8-22.8 24s10.4 24 22.8 24h122c12.8 0 22.8-10.8 22.8-24 0-13.6-10.4-24-22.8-24zM573.2 876h-122c-12.8 0-22.8 10.8-22.8 24s10.4 24 22.8 24h122c12.8 0 22.8-10.8 22.8-24 0-13.6-10.4-24-22.8-24zM520.8 941.2h-64.4v2.4c0 13.6 20 24.4 38.4 24.4h30.4c18.4 0 38.4-10.8 38.4-24.4v-2.4h-42.8z" fill="#74C0FC" p-id="12668"></path><path d="M768.4 730c-8.4 0-16.4-3.2-22.8-9.2l-52-50.8 3.6-4c9.2-10 20.8-23.6 32.4-39.6l4-6 57.6 56c12.4 12.4 12.4 32.4 0 44.4-6.4 6.4-14.4 9.2-22.8 9.2z m-58-60.4l44 42.8c8 7.6 20.8 7.6 28.4 0 8-7.6 8-20 0-28l-47.2-46c-8.8 12.4-18 22.8-25.2 31.2zM250 730c-8.4 0-16.4-3.2-22.8-9.2-12.4-12.4-12.4-32.4 0-44.4l57.6-56 4 6c11.6 16.8 24 30.8 32.4 39.6l4 4-52 50.8a33.64 33.64 0 0 1-23.2 9.2z m-14.4-45.2c-8 7.6-8 20 0 28 8 7.6 20.8 7.6 28.4 0l44-42.8c-7.2-8-16.4-18.4-25.2-30.8l-47.2 45.6z m640-207.6h-97.2l0.4-6c0-5.2 0.4-10 0.4-14.4 0-11.2-0.8-22.8-2.4-35.6l-0.8-6.8h100c17.6 0 32.4 14 32.4 31.6-0.4 16.8-14.8 31.2-32.8 31.2z m-84.4-12H876c11.2 0 20-8.8 20-19.6s-9.2-19.6-20-19.6h-86.4c1.2 10.8 1.6 20.8 1.6 30.4v8.8z m-551.6 12H142.4c-17.6 0-32.4-14-32.4-31.6 0-17.2 14.4-31.6 32.4-31.6h100l-0.8 6.8c-1.6 13.6-2.4 24.8-2.4 35.6 0 4.8 0 9.6 0.4 14.4v6.4z m-97.2-51.2c-11.2 0-20 8.8-20 19.6s9.2 19.6 20 19.6h84.8v-8.8c0-9.6 0.4-19.2 1.6-30.4H142.4zM298 284L227.2 214.8c-12.4-12.4-12.4-32.4 0-44.4 6-6 14.4-9.2 22.8-9.2 8.8 0 16.8 3.2 22.8 9.2l69.6 68-4.8 4c-12.4 10.8-24.4 22.8-35.2 36.4L298 284z m-48-111.2c-5.2 0-10.4 2-14.4 5.6-8 7.6-8 20 0 27.6l61.2 60c8.8-10.4 18-20 27.6-28.4L264 178.4c-3.6-3.6-8.8-5.6-14-5.6zM720.4 284l-4.4-5.2c-11.2-13.6-22.8-25.6-35.2-36.4l-4.8-4 69.6-68c6-6 14.4-9.2 22.8-9.2 8.8 0 16.8 3.2 22.8 9.2 6 6 9.6 14 9.6 22.4 0 8.4-3.2 16.4-9.6 22.4L720.4 284z m-26.8-46.4c9.6 8.4 18.8 18 27.6 28.4l61.2-60c4-3.6 6-8.8 6-14 0-5.2-2-10-6-14-3.6-3.6-8.8-5.6-14-5.6-5.2 0-10.4 2-14.4 5.6l-60.4 59.6z m-152-56.8l-6.8-0.8c-8.8-0.8-17.2-1.2-24.8-1.2h-1.6c-7.6 0-15.6 0.4-24.8 1.2l-6.8 0.8V87.6c0-17.2 14.4-31.6 32.4-31.6 17.6 0 32.4 14 32.4 31.6v93.2z m-33.2-14h1.6c6.4 0 12.4 0.4 19.2 0.8v-80c0-10.8-9.2-19.6-20-19.6-11.2 0-20 8.8-20 19.6v80c6.8-0.4 13.2-0.8 19.2-0.8z" fill="#74C0FC" p-id="12669"></path><path d="M678.4 271.6C629.2 224 564.4 200 496 204.4 372 212 272 318 268 445.2c-3.2 84 35.6 163.6 102.4 212 2.4 4 12 22 41.2 95.2 8.4 22 28.8 36 52.4 36h96c22.8 0 43.2-14 52.4-36 29.6-74.8 39.6-92 41.6-96 64-46.8 102-123.2 102-203.2-0.8-68-28.8-134-77.6-181.6z m-48.4 355.2c-5.2 4-12.8 9.2-54 112-3.2 7.2-9.2 11.6-16.8 11.6h-95.6c-7.6 0-14.4-4.8-16.8-11.6-40.4-102-48-107.6-53.2-111.2-56.8-41.2-89.6-109.2-87.2-180.8 4-107.6 88-197.2 192.4-203.2 4.4 0 9.2-0.8 12.8-0.8 52.4 0 102.4 20.4 140.4 56.8 41.6 40.4 64.4 95.2 64.4 153.6 0.8 69.2-32 133.6-86.4 173.6z m0 0" fill="#74C0FC" p-id="12670"></path><path d="M560 796h-95.6c-26.8 0-50.4-16-60-40.8-25.6-64.4-36-86-39.6-92.4C296 612.4 257.2 531.2 260 444.8c4-131.2 107.2-240.4 235.6-248.4 70-4.8 137.2 19.6 188.4 69.2 50 48.8 79.2 117.2 80 187.2 0 82.8-38.8 160.4-103.6 208.8-4.8 8.8-16 31.6-40.4 93.2-10.4 25.2-34 41.2-60 41.2zM512.8 212c-5.2 0-10.8 0-16 0.4C376.8 220 280 322.4 276 445.6c-2.8 81.6 34 158 99.2 205.2l1.2 0.8 0.8 1.6c3.2 5.6 14 26.4 41.6 96 7.2 18.8 24.8 30.8 44.8 30.8H560c19.6 0 37.2-12 45.2-30.8 19.6-49.6 34.4-83.2 42.4-96.8l0.8-1.6 1.2-0.8c61.6-45.2 98.4-118.8 98.4-196.8-0.8-65.6-28-130-75.2-175.6-44-42.8-100.4-65.6-160-65.6z m46.4 546.4h-95.6c-11.2 0-20.8-6.8-24.4-16.8-39.2-99.6-46.8-105.2-50.4-107.6-59.2-42.8-93.2-112.8-90.8-187.6 4-112 91.6-204.4 199.6-211.2h0.4c2 0 4.4 0 6.4-0.4 2 0 4.4-0.4 6.4-0.4 54.8 0 106.4 20.8 146 59.2C700 335.6 724 392 724 452.8c0.8 71.2-32.8 138.8-90 180-3.6 2.8-11.2 8-51.2 108.8-4 10.8-13.2 16.8-23.6 16.8zM498.8 251.6c-100 6-180.8 92-184.4 195.6-2 69.2 29.2 134 84 174 7.2 5.2 14.8 10.8 56 114.8v0.4c1.2 3.6 4.8 6 9.2 6h95.6c5.6 0 8.4-4.8 9.2-6.8 41.6-104.4 49.6-110.4 56.4-115.6 52.8-38.4 84-100.8 83.2-167.2 0-56.4-22-108.8-62-147.6-36.4-35.2-84.4-54.4-135.2-54.4-1.6 0-3.2 0-5.2 0.4-1.6 0-4.4 0.4-6.8 0.4z" fill="#74C0FC" p-id="12671"></path><path d="M478.8 285.6c-60.4 14-106.4 61.2-118.8 121.2-2.4 11.2 4.8 22 15.6 24.4 1.6 0 2.4 0.8 4 0.8 9.6 0 18-6.4 19.6-16.4 8.8-44.8 44-79.6 88-89.6 10.4-2.4 18-13.2 15.6-24.4-2.8-11.2-12.8-18.4-24-16z m0 0" fill="#74C0FC" p-id="12672"></path><path d="M379.6 434c-1.2 0-2-0.4-2.8-0.4-0.4 0-0.8-0.4-1.6-0.4h-0.4c-12-2.8-19.6-14.8-16.8-26.8 12.4-60.4 59.6-108.8 120.4-122.8 6-1.2 12 0 16.8 3.2 4.8 3.2 8 8.4 9.2 14.4 2.4 12-5.2 24-16.8 26.8-43.6 9.6-77.6 44.4-86.4 88-2 10.8-10.8 18-21.6 18z m-4-4.8c1.2 0 1.6 0.4 2.4 0.4 0.4 0 0.8 0.4 1.6 0.4 8.8 0 16-6 17.6-14.4 9.2-45.2 44-81.2 89.2-91.2 9.6-2.4 16-12 14-22-1.2-5.2-4-9.2-7.6-12-4-2.8-8.8-3.6-13.6-2.8C420 301.2 374 348 362 407.2c-2 10 4 19.6 13.6 22z" fill="#74C0FC" p-id="12673"></path></svg>