<?xml version="1.0" standalone="no"?><!DOCTYPE svg PUBLIC "-//W3C//DTD SVG 1.1//EN" "http://www.w3.org/Graphics/SVG/1.1/DTD/svg11.dtd"><svg t="1705629603306" class="icon" viewBox="0 0 1024 1024" version="1.1" xmlns="http://www.w3.org/2000/svg" p-id="11640" xmlns:xlink="http://www.w3.org/1999/xlink" width="200" height="200"><path d="M48.976162 898.00404c0 42.627879 34.534141 77.174949 77.174949 77.17495h771.697778c42.627879 0 77.174949-34.547071 77.174949-77.17495V685.782626c0-42.627879-34.534141-77.174949-77.174949-77.174949H666.33697V406.044444c0-26.621414-21.604848-48.239192-48.226263-48.239191-26.621414 0-48.226263 21.604848-48.226263 48.239191v202.563233H126.151111c-42.627879 0-77.174949 34.534141-77.174949 77.174949v212.221414z m96.465454-106.110707c0-26.621414 21.604848-48.226263 48.239192-48.226262 26.621414 0 48.226263 21.604848 48.226263 48.226262 0 26.621414-21.604848 48.226263-48.226263 48.226263-26.634343 0.012929-48.239192-21.604848-48.239192-48.226263z m173.627475 0c0-26.621414 21.604848-48.226263 48.226263-48.226262s48.239192 21.604848 48.239191 48.226262c0 26.621414-21.617778 48.226263-48.239191 48.226263-26.621414 0.012929-48.226263-21.604848-48.226263-48.226263z m299.028687-588.42505c-111.90303 0-202.563232 90.673131-202.563233 202.576161 0 26.621414 21.604848 48.226263 48.226263 48.226263 26.621414 0 48.239192-21.604848 48.239192-48.226263 0-58.647273 47.463434-106.110707 106.110707-106.110707 58.647273 0 106.110707 47.463434 106.110707 106.110707 0 26.621414 21.604848 48.226263 48.226263 48.226263 26.621414 0 48.226263-21.604848 48.226262-48.226263 0-111.90303-90.673131-202.576162-202.576161-202.576161z m0-154.33697c-197.171717 0-356.913131 159.741414-356.913132 356.913131 0 26.621414 21.604848 48.226263 48.226263 48.226263 26.621414 0 48.239192-21.604848 48.239192-48.226263 0-143.928889 116.518788-260.447677 260.447677-260.447676 143.91596 0 260.447677 116.531717 260.447677 260.447676 0 26.621414 21.617778 48.226263 48.226262 48.226263 26.621414 0 48.226263-21.604848 48.226263-48.226263C975.010909 208.872727 815.295354 49.131313 618.097778 49.131313z m0 0" fill="#333333" p-id="11641"></path></svg>