<?xml version="1.0" standalone="no"?><!DOCTYPE svg PUBLIC "-//W3C//DTD SVG 1.1//EN" "http://www.w3.org/Graphics/SVG/1.1/DTD/svg11.dtd"><svg t="1706519165129" class="icon" viewBox="0 0 1100 1024" version="1.1" xmlns="http://www.w3.org/2000/svg" p-id="16317" xmlns:xlink="http://www.w3.org/1999/xlink" width="214.84375" height="200"><path d="M182.423704 810.477037q0 213.522963 17.066666 213.522963h207.834074c8.343704 0 13.274074-37.925926 15.54963-110.743704l-240.45037-151.703703zM182.423704 673.564444l241.967407 151.703704v-92.918518l-241.967407-151.703704zM182.423704 490.761481l241.967407 150.565926v-91.78074l-241.967407-150.945186v92.16zM530.962963 303.407407a119.466667 119.466667 0 0 0 75.851852-105.813333V75.851852a75.851852 75.851852 0 0 0-75.851852-75.851852H75.851852a75.851852 75.851852 0 0 0-75.851852 75.851852v121.742222A119.466667 119.466667 0 0 0 75.851852 303.407407a708.835556 708.835556 0 0 0 169.908148 34.891852l178.631111 111.502222V330.334815A743.348148 743.348148 0 0 0 530.962963 303.407407zM1093.404444 621.605926l-123.638518-213.902222a57.647407 57.647407 0 0 0-49.303704-28.444445h-247.277037a57.647407 57.647407 0 0 0-49.303704 28.444445l-123.259259 213.902222a56.50963 56.50963 0 0 0 0 56.888889l123.259259 214.281481a57.647407 57.647407 0 0 0 49.303704 28.444445h247.277037a57.647407 57.647407 0 0 0 49.303704-28.444445l123.638518-214.281481a58.405926 58.405926 0 0 0 0-56.888889zM796.444444 794.168889a134.637037 134.637037 0 1 1 134.257778-134.637037A134.637037 134.637037 0 0 1 796.444444 794.168889z" fill="#999999" p-id="16318"></path></svg>