<?xml version="1.0" standalone="no"?><!DOCTYPE svg PUBLIC "-//W3C//DTD SVG 1.1//EN" "http://www.w3.org/Graphics/SVG/1.1/DTD/svg11.dtd"><svg t="1729558243960" class="icon" viewBox="0 0 1092 1024" version="1.1" xmlns="http://www.w3.org/2000/svg" p-id="5592" xmlns:xlink="http://www.w3.org/1999/xlink" width="273" height="256"><path d="M885.963619 938.597149V369.526974L546.200872 97.621203 206.301592 369.526974v569.070175h153.804595V630.305293c-0.068267-23.620235 19.319441-42.734876 43.281008-42.734876h285.559086c23.893301 0 43.349276 19.114641 43.281009 42.734876v308.291856h153.736329z m-439.295415 0h199.065335v-265.55698H446.668204v265.55698z m629.554361-526.744898a42.25701 42.25701 0 0 1 6.348792 60.074586 43.212742 43.212742 0 0 1-33.518889 15.769579 42.803143 42.803143 0 0 1-27.30663-9.55732l-49.220201-39.389814v542.514476a43.007943 43.007943 0 0 1-43.281009 42.734877H163.020583a43.007943 43.007943 0 0 1-43.281009-42.734877V438.749282l-49.220201 39.389814a43.690608 43.690608 0 0 1-60.825519-6.212259 42.25701 42.25701 0 0 1 6.348791-60.074586L519.030775 9.557321a43.622342 43.622342 0 0 1 54.40846 0l502.78333 402.29493z m-418.542375 61.439918A43.007943 43.007943 0 0 1 614.399181 430.489026a43.007943 43.007943 0 0 1 43.281009-42.734876h96.255871a43.007943 43.007943 0 0 1 43.281009 42.734876 43.007943 43.007943 0 0 1-43.281009 42.66661h-96.255871z" p-id="5593" fill="#74C0FC"></path></svg>